<svg xmlns="http://www.w3.org/2000/svg" width="114" height="30" viewBox="0 0 114 30" fill="none">
  <g clip-path="url(#clip0_2_1451)">
    <path d="M12.4435 18.5634C13.5488 18.5813 15.9538 18.6202 15.9708 17.0774C15.9876 15.4809 13.5969 15.53 12.4736 15.553C12.3579 15.5554 12.2558 15.5575 12.171 15.5575V18.5603C12.2485 18.5603 12.3404 18.5617 12.4435 18.5634Z" fill="#009FE8"/>
    <path d="M12.3535 14.1911C13.2444 14.2212 15.3417 14.292 15.3591 12.8515C15.3759 11.3904 13.384 11.4357 12.4444 11.4571C12.347 11.4594 12.2609 11.4614 12.1896 11.4614V14.1861C12.238 14.1873 12.2929 14.1891 12.3535 14.1911Z" fill="#009FE8"/>
    <path fill-rule="evenodd" clip-rule="evenodd" d="M24.979 10.3121C24.979 25.1034 13.1349 29.1256 13.1349 29.1256C13.1349 29.1256 1.29065 25.1034 1.29065 10.3121V4.99243C1.29065 4.41783 1.7355 3.93591 2.3101 3.89884C4.46022 3.80616 9.55751 3.3613 13.1349 1.45215C16.7122 3.3613 21.8094 3.80616 23.9596 3.89884C24.5342 3.93591 24.979 4.41783 24.979 4.99243V10.3121ZM14.6362 9.92287C16.3971 10.0897 17.7687 10.6457 17.917 12.2584C18.0282 13.4446 17.5278 14.1489 16.7307 14.5197C18.0282 14.8347 18.8252 15.6318 18.6584 17.3556C18.4359 19.5057 16.8419 20.0803 14.5436 20.1915V22.4529H13.1719V20.2286C12.8197 20.2286 12.449 20.2286 12.0783 20.2101V22.4529H10.7252V20.1915C10.4101 20.173 8.24143 20.1915 8.24143 20.1915L8.26002 18.5419H9.79847V11.3316H8.05611V9.90434C8.05611 9.90434 10.5028 9.88575 10.7994 9.88575L10.7808 7.64299H12.1524V9.8487H13.2646V7.66152H14.6362V9.92287Z" fill="#009FE8"/>
    <path d="M48.6845 20.1268C48.6845 21.313 48.4435 22.2954 47.9802 23.0925C47.5168 23.8894 46.8865 24.5382 46.1266 25.0201C45.3481 25.502 44.4769 25.8542 43.4946 26.0767C42.5122 26.2805 41.4927 26.3917 40.4733 26.3917H31.8914V4.83496H40.4733C41.3074 4.83496 42.16 4.92763 43.0312 5.09445C43.9023 5.26128 44.6994 5.55785 45.4037 5.98416C46.1081 6.41048 46.6827 6.96654 47.1461 7.6709C47.5909 8.37521 47.8133 9.28348 47.8133 10.3771C47.8133 11.5819 47.4983 12.5643 46.831 13.3427C46.1822 14.1213 45.3296 14.6959 44.273 15.0294V15.0851C44.8847 15.1963 45.4593 15.3816 45.9969 15.6597C46.5344 15.9377 46.9978 16.2899 47.387 16.7162C47.7763 17.1425 48.0914 17.643 48.3324 18.2176C48.5547 18.7736 48.6845 19.4038 48.6845 20.1268ZM42.7717 11.0814C42.7717 10.3585 42.4936 9.82104 41.9376 9.48739C41.3815 9.15373 40.5474 8.98687 39.4539 8.98687H36.8959V13.4354H39.6948C40.6772 13.4354 41.4186 13.2315 41.9561 12.8423C42.5122 12.4345 42.7717 11.8414 42.7717 11.0814ZM43.4761 19.6263C43.4761 18.7366 43.1424 18.1064 42.4751 17.7728C41.8078 17.4206 40.9181 17.2537 39.7874 17.2537H36.8959V22.1842H39.8246C40.2323 22.1842 40.6586 22.1471 41.0849 22.073C41.5113 21.9988 41.919 21.8691 42.2712 21.7023C42.6234 21.5169 42.92 21.2574 43.1424 20.9238C43.3648 20.5901 43.4761 20.1638 43.4761 19.6263Z" fill="white"/>
    <path d="M55.5982 6.39192C55.5982 6.78116 55.524 7.13334 55.3758 7.46698C55.2275 7.80065 55.0236 8.09718 54.7641 8.33814C54.5046 8.5791 54.208 8.76448 53.8558 8.91275C53.5037 9.06102 53.133 9.11666 52.7437 9.11666C51.9282 9.11666 51.2609 8.85711 50.7049 8.30109C50.1488 7.76353 49.8893 7.11481 49.8893 6.37338C49.8893 6.00268 49.9634 5.6505 50.1117 5.31686C50.26 4.98322 50.4639 4.68665 50.7234 4.44569C50.9829 4.20472 51.298 4.00084 51.6316 3.85255C51.9837 3.70427 52.3545 3.63013 52.7623 3.63013C53.1515 3.63013 53.5222 3.70427 53.8744 3.83402C54.2265 3.9823 54.5417 4.16766 54.7826 4.40862C55.0421 4.64958 55.246 4.94615 55.3943 5.27978C55.524 5.63196 55.5982 6.00267 55.5982 6.39192ZM50.2415 11.2296H55.246V26.3917H50.2415V11.2296Z" fill="white"/>
    <path d="M64.2913 14.9366V20.7382C64.2913 21.4611 64.4211 21.9801 64.6992 22.3508C64.9772 22.703 65.4591 22.8884 66.182 22.8884C66.4229 22.8884 66.6824 22.8698 66.9605 22.8327C67.2385 22.7957 67.4609 22.7401 67.6463 22.6474L67.7019 26.2989C67.3497 26.4286 66.9234 26.5213 66.3859 26.614C65.8483 26.7067 65.3293 26.7437 64.7918 26.7437C63.7724 26.7437 62.9198 26.614 62.2339 26.3545C61.5481 26.095 60.992 25.7428 60.5657 25.2609C60.1579 24.779 59.8429 24.2229 59.6575 23.5556C59.4722 22.8884 59.3795 22.1655 59.3795 21.3499V14.9366H56.9884V11.2295H59.398V7.24438H64.3099V11.2295H67.8687V14.9366H64.2913Z" fill="white"/>
    <path d="M85.9406 26.4287C84.5319 26.7809 82.9939 26.9477 81.3253 26.9477C79.6014 26.9477 78.0074 26.6697 76.5621 26.1321C75.1161 25.5761 73.856 24.8161 72.8178 23.8152C71.7796 22.8143 70.9459 21.628 70.3709 20.2378C69.7778 18.8477 69.4813 17.2907 69.4813 15.5854C69.4813 13.8617 69.7778 12.3047 70.3895 10.896C70.9826 9.48728 71.8169 8.30101 72.8731 7.31861C73.9299 6.33623 75.1721 5.57628 76.5801 5.05729C78.0074 4.53829 79.5274 4.26025 81.1774 4.26025C82.8826 4.26025 84.4579 4.51975 85.9226 5.03875C87.3866 5.55774 88.5727 6.24355 89.481 7.13326L86.2005 10.8774C85.7 10.2843 85.0143 9.80234 84.1987 9.43164C83.3644 9.06094 82.4188 8.87562 81.3626 8.87562C80.4544 8.87562 79.6014 9.04241 78.8417 9.37607C78.0634 9.70972 77.3957 10.1731 76.84 10.7848C76.2656 11.3779 75.8204 12.1008 75.5239 12.9164C75.2087 13.7319 75.0421 14.6401 75.0421 15.604C75.0421 16.6049 75.19 17.5131 75.4686 18.3473C75.7465 19.1814 76.1729 19.9042 76.7287 20.4974C77.2844 21.0905 77.9708 21.5724 78.8044 21.9061C79.6201 22.2397 80.5656 22.4065 81.6218 22.4065C82.2336 22.4065 82.8087 22.3694 83.3644 22.2768C83.9022 22.1841 84.4213 22.0358 84.8844 21.8319V17.9024H80.7696V13.6578H89.6662V25.0756C88.5727 25.6317 87.3493 26.0766 85.9406 26.4287Z" fill="white"/>
    <path d="M108.406 18.7551C108.406 19.997 108.183 21.1091 107.739 22.1286C107.294 23.1295 106.682 23.9822 105.904 24.6865C105.125 25.3908 104.236 25.9284 103.216 26.3176C102.197 26.7068 101.122 26.8922 99.9536 26.8922C98.8228 26.8922 97.7293 26.7068 96.7097 26.3176C95.6909 25.9284 94.7826 25.3908 94.0222 24.6865C93.2626 23.9822 92.6509 23.1295 92.2057 22.1286C91.7613 21.1276 91.5387 19.997 91.5387 18.7551C91.5387 17.5133 91.7613 16.4011 92.2057 15.4002C92.6509 14.3993 93.2626 13.5652 94.0222 12.8794C94.7826 12.1936 95.6722 11.656 96.7097 11.3038C97.7293 10.9331 98.8228 10.7478 99.9536 10.7478C101.103 10.7478 102.197 10.9331 103.216 11.3038C104.236 11.6746 105.125 12.1936 105.904 12.8794C106.682 13.5652 107.275 14.4178 107.739 15.4002C108.183 16.4011 108.406 17.5133 108.406 18.7551ZM103.605 18.7551C103.605 18.2732 103.531 17.7913 103.364 17.3279C103.197 16.8645 102.975 16.4567 102.66 16.086C102.363 15.7338 101.974 15.4372 101.53 15.2148C101.084 14.9924 100.565 14.8812 99.9723 14.8812C99.3792 14.8812 98.8601 14.9924 98.4156 15.2148C97.9705 15.4372 97.6 15.7338 97.3035 16.086C97.0069 16.4382 96.7844 16.8459 96.6358 17.3279C96.4878 17.7913 96.4132 18.2732 96.4132 18.7551C96.4132 19.237 96.4878 19.719 96.6358 20.1823C96.7844 20.6457 97.0069 21.0721 97.3214 21.4428C97.618 21.8135 98.0078 22.1286 98.4523 22.351C98.8974 22.5735 99.4165 22.6847 100.01 22.6847C100.603 22.6847 101.122 22.5735 101.566 22.351C102.011 22.1286 102.382 21.832 102.697 21.4428C102.994 21.0721 103.235 20.6457 103.383 20.1823C103.531 19.719 103.605 19.237 103.605 18.7551Z" fill="white"/>
    <path d="M110.945 23.426C111.891 23.426 112.688 24.1674 112.688 25.1499C112.688 26.1507 111.872 26.8921 110.945 26.8921C110 26.8921 109.184 26.1507 109.184 25.1499C109.184 24.1489 109.982 23.426 110.945 23.426ZM110.945 23.7041C110.148 23.7041 109.518 24.3343 109.518 25.1499C109.518 26.0025 110.148 26.5956 110.945 26.5956C111.742 26.5956 112.354 25.984 112.354 25.1499C112.354 24.3158 111.724 23.7041 110.945 23.7041ZM110.575 26.1507H110.26V24.1489H111.019C111.501 24.1489 111.724 24.3343 111.724 24.7235C111.724 25.0757 111.501 25.2425 111.205 25.2796L111.78 26.1507H111.446L110.908 25.2796H110.556V26.1507H110.575ZM110.575 25.0386H110.945C111.316 25.0386 111.446 24.9274 111.446 24.705C111.446 24.5196 111.353 24.4084 111.001 24.4084H110.593V25.0386H110.575Z" fill="white"/>
  </g>
  <defs>
    <clipPath id="clip0_2_1451">
      <rect width="112.669" height="28.34" fill="white" transform="translate(0.641968 0.814209)"/>
    </clipPath>
  </defs>
</svg>