<svg xmlns="http://www.w3.org/2000/svg" width="155" height="29" viewBox="0 0 155 29" fill="none">
  <path d="M31.5537 8.64275C25.9046 8.64275 21.5333 12.8795 21.5333 18.5958C21.5333 24.3121 25.8374 28.5489 31.5537 28.5489C37.27 28.5489 41.6412 24.2449 41.6412 18.5958C41.6412 12.9468 37.3372 8.64275 31.5537 8.64275ZM31.6209 24.3794C28.3928 24.3794 26.1063 21.8911 26.1063 18.5286C26.1063 15.1661 28.3928 12.6778 31.6209 12.6778C34.8489 12.6778 37.2027 15.1661 37.2027 18.5286C37.2027 21.8911 34.7817 24.3794 31.6209 24.3794ZM42.8517 12.9468H45.609V28.1455H50.1148V8.97899H42.8517V12.9468ZM10.3025 12.7451C12.6562 12.7451 14.5393 14.1573 15.2117 16.3093H19.9193C19.0451 11.7363 15.279 8.57551 10.3025 8.57551C4.72066 8.64275 0.349365 12.8795 0.349365 18.5958C0.349365 24.3121 4.6534 28.5489 10.3697 28.5489C15.2117 28.5489 19.0451 25.4554 19.9193 20.8151H15.2117C14.5393 22.9671 12.6562 24.4467 10.3697 24.4467C7.14167 24.4467 4.85516 21.9584 4.85516 18.5958C4.85516 15.2333 7.07443 12.7451 10.3025 12.7451ZM127.655 16.7128L124.36 16.2421C122.813 16.0403 121.67 15.5023 121.67 14.2918C121.67 12.9468 123.149 12.2743 125.099 12.2743C127.252 12.2743 128.663 13.2158 128.933 14.6953H133.236C132.766 10.862 129.807 8.57551 125.234 8.57551C120.526 8.57551 117.365 10.9965 117.365 14.4263C117.365 17.6544 119.383 19.6046 123.553 20.1426L126.848 20.6134C128.462 20.8151 129.336 21.4876 129.336 22.6309C129.336 24.1777 127.789 24.7829 125.637 24.7829C123.014 24.7829 121.535 23.7069 121.266 22.0929H116.895C117.298 25.8589 120.257 28.4817 125.57 28.4817C130.412 28.4817 133.708 26.2624 133.708 22.4292C133.708 19.0666 131.353 17.3181 127.655 16.7128ZM47.8956 1.11069C46.2815 1.11069 45.0038 2.3212 45.0038 3.93521C45.0038 5.54923 46.2143 6.75974 47.8956 6.75974C49.5096 6.75974 50.7873 5.54923 50.7873 3.93521C50.7873 2.3212 49.5096 1.11069 47.8956 1.11069ZM113.398 15.5695C113.398 11.4 110.842 8.64275 105.529 8.64275C100.486 8.64275 97.6608 11.1983 97.0555 15.0988H101.494C101.696 13.552 102.907 12.3415 105.462 12.3415C107.749 12.3415 108.825 13.3503 108.825 14.5608C108.825 16.1749 106.807 16.5783 104.252 16.8473C100.821 17.2508 96.5849 18.3941 96.5849 22.8326C96.5849 26.2624 99.1403 28.4817 103.243 28.4817C106.471 28.4817 108.421 27.1367 109.43 25.0519C109.565 26.9349 110.976 28.1455 112.994 28.1455H115.617V24.1777H113.398V15.5695ZM108.959 20.3443C108.959 22.8999 106.74 24.7829 103.983 24.7829C102.302 24.7829 100.889 24.1104 100.889 22.5636C100.889 20.6806 103.176 20.1426 105.26 19.9409C107.278 19.7391 108.354 19.3356 108.959 18.4614V20.3443ZM85.2871 8.64275C82.7988 8.64275 80.7141 9.65154 79.2346 11.4V0.908936H74.7956V28.1455H79.1669V25.6572C80.6463 27.4729 82.7988 28.5489 85.2871 28.5489C90.6672 28.5489 94.702 24.3121 94.702 18.5958C94.702 12.8795 90.5995 8.64275 85.2871 8.64275ZM84.6147 24.3794C81.3864 24.3794 79.0999 21.8911 79.0999 18.5286C79.0999 15.1661 81.4534 12.6778 84.6818 12.6778C87.9094 12.6778 90.196 15.1661 90.196 18.5286C90.196 21.9584 87.8424 24.3794 84.6147 24.3794ZM64.103 8.64275C61.2112 8.64275 59.3282 9.85324 58.1849 11.4673V8.97899H53.7464V28.1455H58.1849V17.7216C58.1849 14.7626 60.0679 12.7451 62.8252 12.7451C65.3807 12.7451 66.9947 14.5608 66.9947 17.1836V28.1455H71.4332V16.8473C71.4332 12.0053 68.945 8.64275 64.103 8.64275ZM154.959 17.9906C154.959 12.4761 150.924 8.64275 145.544 8.64275C139.827 8.64275 135.591 12.9468 135.591 18.5958C135.591 24.5811 140.096 28.5489 145.611 28.5489C150.251 28.5489 153.883 25.7916 154.824 21.8911H150.184C149.511 23.5724 147.897 24.5811 145.678 24.5811C142.786 24.5811 140.634 22.8326 140.164 19.6719H154.959V17.9906ZM140.432 16.5111C141.172 13.821 143.122 12.5433 145.476 12.5433C148.032 12.5433 149.915 13.9556 150.386 16.5111H140.432Z" fill="#0052FF"/>
</svg>