<svg xmlns="http://www.w3.org/2000/svg" width="45" height="45" viewBox="0 0 45 45" fill="none">
  <path d="M13.514 12.1489C12.9932 12.507 12.4398 12.7756 11.8539 12.9546C11.2679 13.1336 10.6657 13.2231 10.0472 13.2231C9.23344 13.2231 8.43591 13.0685 7.65466 12.7593C6.87341 12.45 6.18982 12.0024 5.60388 11.4165C5.01794 10.8306 4.57035 10.147 4.26111 9.36572C3.95186 8.58447 3.79724 7.78695 3.79724 6.97314C3.79724 6.35466 3.88676 5.75244 4.0658 5.1665C4.24483 4.58057 4.51339 4.02718 4.87146 3.50635C5.19698 2.98552 5.59574 2.52979 6.06775 2.13916C6.53975 1.74854 7.06873 1.43929 7.65466 1.21143C8.2406 0.951008 8.83468 0.796387 9.43689 0.747559C10.0391 0.69873 10.6495 0.723145 11.2679 0.820801C11.8864 0.951008 12.4642 1.1626 13.0013 1.45557C13.5385 1.74854 14.0349 2.10661 14.4906 2.52979C14.9138 2.98552 15.2719 3.48193 15.5648 4.01904C15.8578 4.55615 16.0694 5.13395 16.1996 5.75244C16.2972 6.37093 16.3217 6.98128 16.2728 7.5835C16.224 8.18571 16.0694 8.77979 15.809 9.36572C15.5811 9.95166 15.2719 10.4806 14.8812 10.9526C14.4906 11.4246 14.0349 11.8234 13.514 12.1489ZM11.8051 4.38525C11.5446 4.22249 11.2598 4.09229 10.9506 3.99463C10.6413 3.89697 10.3402 3.84814 10.0472 3.84814C9.62406 3.84814 9.2253 3.92952 8.85095 4.09229C8.4766 4.25505 8.14294 4.48291 7.84998 4.77588C7.55701 5.06885 7.32914 5.40251 7.16638 5.77686C7.00362 6.1512 6.92224 6.54997 6.92224 6.97314C6.92224 7.26611 6.97107 7.56722 7.06873 7.87646C7.16638 8.18571 7.29659 8.47054 7.45935 8.73096C7.62211 8.95882 7.82556 9.17041 8.0697 9.36572C8.31384 9.56104 8.5824 9.7238 8.87537 9.854C9.13578 9.98421 9.42061 10.0656 9.72986 10.0981C10.0391 10.1307 10.3402 10.1144 10.6332 10.0493C10.9587 9.98421 11.2598 9.87842 11.5365 9.73193C11.8132 9.58545 12.0492 9.39827 12.2445 9.17041C12.4724 8.9751 12.6595 8.73909 12.806 8.4624C12.9525 8.18571 13.0583 7.8846 13.1234 7.55908C13.1885 7.26611 13.2048 6.96501 13.1722 6.65576C13.1397 6.34652 13.0583 6.06169 12.9281 5.80127C12.7979 5.5083 12.6351 5.23975 12.4398 4.99561C12.2445 4.75146 12.0329 4.54802 11.8051 4.38525ZM35.0472 16.3481V14.7856C35.0472 14.2648 34.9984 13.7521 34.9008 13.2476C34.8031 12.743 34.6566 12.2629 34.4613 11.8071C34.266 11.3188 34.0219 10.8631 33.7289 10.4399C33.4359 10.0168 33.1104 9.62614 32.7523 9.26807C32.3942 8.90999 32.0036 8.58447 31.5804 8.2915C31.1573 7.99854 30.7015 7.75439 30.2133 7.55908C29.7575 7.36377 29.2774 7.21729 28.7728 7.11963C28.2683 7.02197 27.7556 6.97314 27.2347 6.97314H22.5472V3.84814H27.2347C28.6996 3.84814 30.0993 4.12484 31.434 4.67822C32.7686 5.23161 33.9405 6.02913 34.9496 7.0708C35.9913 8.07991 36.7888 9.25179 37.3422 10.5864C37.8955 11.9211 38.1722 13.3208 38.1722 14.7856V16.3481H35.0472ZM6.92224 28.8481V30.4106C6.92224 31.4523 7.11755 32.4533 7.50818 33.4136C7.8988 34.3739 8.46847 35.2121 9.21716 35.9282C9.93331 36.6769 10.7715 37.2466 11.7318 37.6372C12.6921 38.0278 13.6931 38.2231 14.7347 38.2231H19.4222V41.3481H14.7347C13.2699 41.3481 11.8702 41.0715 10.5355 40.5181C9.20089 39.9647 8.02901 39.1672 7.0199 38.1255C5.97823 37.1164 5.1807 35.9445 4.62732 34.6099C4.07393 33.2752 3.79724 31.8755 3.79724 30.4106V28.8481H6.92224ZM14.7347 14.7856H5.35974C4.74125 14.7856 4.14718 14.9077 3.57751 15.1519C3.00785 15.396 2.49516 15.7297 2.03943 16.1528C1.61625 16.6086 1.28259 17.1213 1.03845 17.6909C0.794312 18.2606 0.672241 18.8547 0.672241 19.4731V22.5981H3.79724V19.4731C3.79724 19.2778 3.83793 19.0825 3.91931 18.8872C4.00069 18.6919 4.10649 18.5129 4.23669 18.3501C4.39945 18.2199 4.57849 18.1141 4.7738 18.0327C4.96912 17.9513 5.16443 17.9106 5.35974 17.9106H14.7347C14.9301 17.9106 15.1254 17.9513 15.3207 18.0327C15.516 18.1141 15.695 18.2199 15.8578 18.3501C15.988 18.5129 16.0938 18.6919 16.1752 18.8872C16.2566 19.0825 16.2972 19.2778 16.2972 19.4731V22.5981H19.4222V19.4731C19.4222 18.8547 19.3002 18.2606 19.056 17.6909C18.8119 17.1213 18.4782 16.6086 18.0551 16.1528C17.5993 15.7297 17.0866 15.396 16.517 15.1519C15.9473 14.9077 15.3532 14.7856 14.7347 14.7856ZM30.3597 36.6606C29.7413 36.6606 29.1472 36.7827 28.5775 37.0269C28.0079 37.271 27.4952 37.6047 27.0394 38.0278C26.6163 38.4836 26.2826 38.9963 26.0385 39.5659C25.7943 40.1356 25.6722 40.7297 25.6722 41.3481V44.4731H28.7972V41.3481C28.7972 41.1528 28.8379 40.9575 28.9193 40.7622C29.0007 40.5669 29.1065 40.3879 29.2367 40.2251C29.3995 40.0949 29.5785 39.9891 29.7738 39.9077C29.9691 39.8263 30.1644 39.7856 30.3597 39.7856H39.7347C39.9301 39.7856 40.1254 39.8263 40.3207 39.9077C40.516 39.9891 40.695 40.0949 40.8578 40.2251C40.988 40.3879 41.0938 40.5669 41.1752 40.7622C41.2565 40.9575 41.2972 41.1528 41.2972 41.3481V44.4731H44.4222V41.3481C44.4222 40.7297 44.3002 40.1356 44.056 39.5659C43.8119 38.9963 43.4782 38.4836 43.0551 38.0278C42.5993 37.6047 42.0866 37.271 41.517 37.0269C40.9473 36.7827 40.3532 36.6606 39.7347 36.6606H30.3597ZM29.8715 32.3149C29.5134 31.7941 29.2448 31.2407 29.0658 30.6548C28.8868 30.0688 28.7972 29.4666 28.7972 28.8481C28.7972 28.0343 28.9519 27.2368 29.2611 26.4556C29.5704 25.6743 30.0179 24.9907 30.6039 24.4048C31.1898 23.8188 31.8734 23.3713 32.6547 23.062C33.4359 22.7528 34.2334 22.5981 35.0472 22.5981C35.6657 22.5981 36.2679 22.6877 36.8539 22.8667C37.4398 23.0457 37.9932 23.3143 38.514 23.6724C39.0349 23.9979 39.4906 24.3966 39.8812 24.8687C40.2719 25.3407 40.5811 25.8696 40.809 26.4556C41.0694 27.0415 41.224 27.6356 41.2728 28.2378C41.3217 28.84 41.2972 29.4504 41.1996 30.0688C41.0694 30.6873 40.8578 31.2651 40.5648 31.8022C40.2719 32.3394 39.9138 32.8358 39.4906 33.2915C39.0349 33.7147 38.5385 34.0728 38.0013 34.3657C37.4642 34.6587 36.8864 34.8703 36.2679 35.0005C35.6495 35.0981 35.0391 35.1226 34.4369 35.0737C33.8347 35.0249 33.2406 34.8703 32.6547 34.6099C32.0687 34.382 31.5398 34.0728 31.0677 33.6821C30.5957 33.2915 30.197 32.8358 29.8715 32.3149ZM37.6351 30.606C37.7979 30.3455 37.9281 30.0607 38.0258 29.7515C38.1234 29.4422 38.1722 29.1411 38.1722 28.8481C38.1722 28.425 38.0909 28.0262 37.9281 27.6519C37.7653 27.2775 37.5375 26.9438 37.2445 26.6509C36.9515 26.3579 36.6179 26.13 36.2435 25.9673C35.8692 25.8045 35.4704 25.7231 35.0472 25.7231C34.7543 25.7231 34.4532 25.772 34.1439 25.8696C33.8347 25.9673 33.5498 26.0975 33.2894 26.2603C33.0616 26.423 32.85 26.6265 32.6547 26.8706C32.4594 27.1147 32.2966 27.3833 32.1664 27.6763C32.0362 27.9367 31.9548 28.2215 31.9222 28.5308C31.8897 28.84 31.906 29.1411 31.9711 29.4341C32.0362 29.7596 32.142 30.0607 32.2885 30.3374C32.4349 30.6141 32.6221 30.8501 32.85 31.0454C33.0453 31.2733 33.2813 31.4604 33.558 31.6069C33.8347 31.7534 34.1358 31.8592 34.4613 31.9243C34.7543 31.9894 35.0554 32.0057 35.3646 31.9731C35.6739 31.9406 35.9587 31.8592 36.2191 31.729C36.5121 31.5988 36.7806 31.436 37.0248 31.2407C37.2689 31.0454 37.4724 30.8338 37.6351 30.606Z" fill="url(#paint0_linear_2_1567)"/>
  <defs>
    <linearGradient id="paint0_linear_2_1567" x1="0.672242" y1="0.723144" x2="51.8248" y2="32.5909" gradientUnits="userSpaceOnUse">
      <stop stop-color="#2600FC"/>
      <stop offset="1" stop-color="#FF00EA"/>
    </linearGradient>
  </defs>
</svg>