<svg xmlns="http://www.w3.org/2000/svg" width="82" height="25" viewBox="0 0 82 25" fill="none">
  <path fill-rule="evenodd" clip-rule="evenodd" d="M62.4415 0.773182V20.9687C62.4229 21.2898 62.5549 21.611 62.7817 21.8566C63.0084 22.1022 63.3299 22.2344 63.6507 22.2344H64.0095C64.3497 22.2344 64.6712 22.1022 64.898 21.8566C65.124 21.611 65.2568 21.2898 65.2568 20.9687V0.773182H67.5991V21.4976C67.5991 23.0657 66.3526 24.3315 64.7846 24.3692H62.9898C62.2148 24.3692 61.4785 24.0858 60.9302 23.538C60.3826 22.9901 60.0805 22.2722 60.0805 21.4976V0.773182H62.4415ZM79.1041 0.546476C80.6722 0.584259 81.938 2.05784 81.938 3.64476V5.51504C81.938 5.77956 81.768 6.00626 81.5039 6.08182L79.5577 6.62966V3.94702C79.5577 3.26693 78.9908 2.70014 78.3111 2.70014C77.6308 2.70014 77.0639 3.24805 77.0639 3.94702V6.17626C77.0639 7.5554 78.0844 9.31237 78.0844 9.31237L80.8803 14.6965C82.0141 16.8313 81.9194 18.3993 81.9194 18.3993V21.3843C81.9194 22.1589 81.6173 22.9145 81.069 23.4813C80.5214 24.0481 79.7658 24.3503 78.9721 24.3692H77.4988C75.9114 24.2748 74.6649 22.9712 74.6649 21.3843V18.0405C74.6649 17.7759 74.835 17.5492 75.0991 17.4737L77.0452 16.9258V21.0065C77.0452 21.6866 77.6122 22.2344 78.3111 22.2344C78.9908 22.2344 79.5577 21.6677 79.539 20.9687V18.3049C79.539 16.9447 78.5186 15.131 78.5186 15.131L75.7607 9.74682C74.6269 7.61209 74.7216 6.04401 74.7216 6.04401V3.64476C74.7216 2.02005 76.0248 0.546476 77.6689 0.546476H79.1041ZM34.8781 0.546476C36.4655 0.62205 37.7121 1.94448 37.7121 3.53137V21.4599C37.6934 23.0279 36.4462 24.3125 34.8781 24.3881H33.0834C31.478 24.3692 30.1741 23.0656 30.1554 21.4599V3.5125C30.1554 2.73796 30.4576 1.98226 31.0058 1.41551C31.5534 0.848748 32.309 0.546476 33.1027 0.527588L34.8781 0.546476ZM7.95731 0.773182L7.39053 2.73796C7.31497 3.00241 7.08826 3.17249 6.82382 3.17249H3.06431V10.6914H6.95608L6.38929 12.6562C6.31373 12.9018 6.08703 13.0908 5.82251 13.0908H3.06431V21.7621H7.95731L7.40947 23.708C7.33391 23.9725 7.10721 24.1425 6.84269 24.1425H0.72168V0.773182H7.95731ZM49.7273 0.773182C51.352 0.792077 52.6366 2.09562 52.6366 3.70145V21.1954C52.6366 22.8012 51.3333 24.1236 49.7273 24.1236H45.1933V0.773182H49.7273ZM18.8579 8.29219L21.0117 0.773182H23.4109L20.0671 12.4673L23.4298 24.1614H21.0306L18.8579 16.6235L16.7043 24.1425H14.305L17.6489 12.4673L14.2861 0.773182H16.6854L18.8579 8.29219ZM34.0851 22.2722C34.4246 22.2722 34.7461 22.1211 34.9729 21.8755C35.1996 21.6299 35.3317 21.3087 35.313 20.9687V3.94702C35.3317 3.60694 35.1996 3.2858 34.9729 3.04023C34.7461 2.79465 34.4246 2.6624 34.0851 2.64345H33.7256C33.0267 2.68127 32.4791 3.24805 32.4791 3.94702V20.9687C32.4791 21.6677 33.0267 22.2344 33.7256 22.2722H34.0851ZM49.0664 21.781C49.7273 21.781 50.3129 21.441 50.3129 20.5341V4.38155C50.3129 3.5125 49.7273 3.17249 49.0664 3.17249H47.5357V21.781H49.0664Z" fill="white"/>
</svg>