<svg xmlns="http://www.w3.org/2000/svg" width="33" height="33" viewBox="0 0 33 33" fill="none">
  <path d="M23.1444 16.4578L32.9682 26.2817H29.4921C28.9064 26.2817 28.3208 26.036 27.9051 25.6204L18.7803 16.4578L27.9429 7.27634C28.3586 6.86069 28.9253 6.61511 29.5298 6.63399H32.9682L23.1444 16.4578ZM5.14034 7.27634C4.72472 6.86069 4.15796 6.61511 3.55342 6.63399H0.0961914L9.91998 16.4578L0.0961914 26.2817H3.57231C4.15796 26.2817 4.74361 26.036 5.15923 25.6204L14.303 16.4389L5.14034 7.27634ZM16.5322 18.7059L7.35072 27.8685C6.93508 28.2842 6.70838 28.8509 6.70838 29.4555V32.9127L16.5322 23.0889L26.356 32.9127V29.4366C26.356 28.8509 26.1293 28.2653 25.7137 27.8497L16.5322 18.7059ZM16.5322 14.2097L25.7137 5.04708C26.1293 4.63146 26.356 4.0647 26.356 3.46016V0.00292969L16.5322 9.82672L6.70838 0.00292969V3.46016C6.70838 4.04581 6.93508 4.63146 7.35072 5.04708L16.5322 14.2097Z" fill="url(#paint0_linear_2_1474)"/>
  <defs>
    <linearGradient id="paint0_linear_2_1474" x1="0.0852305" y1="16.4543" x2="20.8699" y2="16.4543" gradientUnits="userSpaceOnUse">
      <stop stop-color="#00BFFF"/>
      <stop offset="1" stop-color="#6619FF"/>
    </linearGradient>
  </defs>
</svg>