<svg xmlns="http://www.w3.org/2000/svg" width="45" height="45" viewBox="0 0 45 45" fill="none">
  <path d="M10.3728 4.50047C12.1631 3.29604 14.1 2.37644 16.1833 1.74168C18.2666 1.10691 20.3825 0.789528 22.531 0.789528C23.9958 0.789528 25.4281 0.936012 26.8278 1.22898C28.2276 1.4894 29.5866 1.8963 30.905 2.44968C32.2233 3.00307 33.4847 3.67039 34.6892 4.45164C35.861 5.26544 36.9678 6.1769 38.0095 7.18601C39.0186 8.22768 39.9301 9.33445 40.7439 10.5063C41.5251 11.7108 42.1924 12.9721 42.7458 14.2905C43.2992 15.6089 43.7061 16.9679 43.9665 18.3677C44.2595 19.7674 44.406 21.1997 44.406 22.6645C44.406 24.813 44.0886 26.9289 43.4538 29.0122C42.8191 31.0955 41.8995 33.0324 40.695 34.8227C39.5232 36.6131 38.099 38.1919 36.4226 39.5591C34.7461 40.9262 32.8988 42.033 30.8806 42.8794C28.8949 43.6932 26.8278 44.2059 24.6794 44.4175C22.531 44.629 20.3988 44.5233 18.2829 44.1001C16.1345 43.6769 14.1081 42.9608 12.2038 41.9516C10.2995 40.9425 8.5824 39.673 7.05245 38.143C5.5225 36.6131 4.25297 34.896 3.24386 32.9917C2.23474 31.0874 1.5186 29.061 1.09542 26.9126C0.672241 24.7967 0.566447 22.6645 0.778035 20.5161C0.989624 18.3677 1.50232 16.3006 2.31612 14.3149C3.16248 12.2967 4.26925 10.4494 5.63643 8.77293C7.00362 7.0965 8.5824 5.67234 10.3728 4.50047ZM12.1306 38.2407C13.6605 39.2824 15.3125 40.0718 17.0866 40.6089C18.8607 41.146 20.6755 41.4145 22.531 41.4145C25.0049 41.4145 27.3975 40.9425 29.7087 39.9985C32.0199 39.0545 34.0544 37.7036 35.8122 35.9458C37.57 34.188 38.9209 32.1535 39.865 29.8423C40.809 27.5311 41.281 25.1385 41.281 22.6645C41.281 20.8091 41.0124 18.9943 40.4753 17.2202C39.9382 15.4461 39.1488 13.7941 38.1071 12.2641C37.098 10.7016 35.8773 9.33445 34.445 8.16257C33.0127 6.9907 31.434 6.04669 29.7087 5.33054C27.9834 4.6144 26.2012 4.16681 24.362 3.98777C22.5228 3.80873 20.6918 3.89825 18.8689 4.25632C17.0459 4.6144 15.3207 5.23289 13.6931 6.11179C12.0655 6.9907 10.5844 8.0812 9.24972 9.38328C7.94763 10.7179 6.85714 12.199 5.97823 13.8266C5.09932 15.4542 4.48083 17.1795 4.12276 19.0024C3.76469 20.8253 3.67517 22.6564 3.85421 24.4956C4.03324 26.3348 4.48083 28.117 5.19698 29.8423C5.91313 31.5675 6.85714 33.1463 8.02901 34.5786C9.20089 36.0109 10.5681 37.2316 12.1306 38.2407ZM11.5935 23.2993L19.406 31.1118L33.4685 17.0493L31.2712 14.852L19.406 26.7173L13.7907 21.102L11.5935 23.2993Z" fill="url(#paint0_linear_2_1549)"/>
  <defs>
    <linearGradient id="paint0_linear_2_1549" x1="0.672242" y1="0.789527" x2="51.8058" y2="32.6454" gradientUnits="userSpaceOnUse">
      <stop stop-color="#2600FC"/>
      <stop offset="1" stop-color="#FF00EA"/>
    </linearGradient>
  </defs>
</svg>