<svg xmlns="http://www.w3.org/2000/svg" width="44" height="42" viewBox="0 0 44 42" fill="none">
  <path d="M3.29724 38.4146H9.54724V35.2896H3.29724V4.03955H15.1625L21.4125 10.2896H40.7972V22.7896H43.9222V10.2896C43.9222 9.86637 43.8409 9.46761 43.6781 9.09326C43.5153 8.71891 43.2875 8.38525 42.9945 8.09229C42.7015 7.79932 42.3679 7.57145 41.9935 7.40869C41.6192 7.24593 41.2204 7.16455 40.7972 7.16455H22.682L17.3597 1.84229C17.2295 1.67952 17.0749 1.54118 16.8959 1.42725C16.7168 1.31331 16.5297 1.2238 16.3344 1.15869C16.139 1.06104 15.9437 0.99593 15.7484 0.963379C15.5531 0.930828 15.3578 0.914551 15.1625 0.914551H3.29724C2.87406 0.914551 2.4753 0.99593 2.10095 1.15869C1.7266 1.32145 1.39294 1.54932 1.09998 1.84229C0.807007 2.13525 0.579142 2.46891 0.416382 2.84326C0.253621 3.21761 0.172241 3.61637 0.172241 4.03955V35.2896C0.172241 35.7127 0.253621 36.1115 0.416382 36.4858C0.579142 36.8602 0.807007 37.1938 1.09998 37.4868C1.39294 37.7798 1.7266 38.0076 2.10095 38.1704C2.4753 38.3332 2.87406 38.4146 3.29724 38.4146ZM23.6097 27.4771H12.6722V16.5396H23.6097V27.4771ZM15.7972 24.3521H20.4847V19.6646H15.7972V24.3521ZM23.6097 41.5396H12.6722V30.6021H23.6097V41.5396ZM15.7972 38.4146H20.4847V33.7271H15.7972V38.4146ZM26.7347 27.4771H37.6722V16.5396H26.7347V27.4771ZM34.5472 24.3521H29.8597V19.6646H34.5472V24.3521ZM37.6722 41.5396H26.7347V30.6021H37.6722V41.5396ZM29.8597 38.4146H34.5472V33.7271H29.8597V38.4146Z" fill="url(#paint0_linear_2_1540)"/>
  <defs>
    <linearGradient id="paint0_linear_2_1540" x1="0.172242" y1="0.91455" x2="49.1375" y2="33.7662" gradientUnits="userSpaceOnUse">
      <stop stop-color="#2600FC"/>
      <stop offset="1" stop-color="#FF00EA"/>
    </linearGradient>
  </defs>
</svg>