<svg xmlns="http://www.w3.org/2000/svg" width="176" height="34" viewBox="0 0 176 34" fill="none">
  <path d="M55.5257 9.06028H53.3003C53.3003 9.06028 53.1943 9.06028 53.1943 9.16629L51.2868 15.4188C51.2868 15.5248 51.1808 15.5248 51.0748 15.4188L49.1673 9.16629C49.1673 9.16629 49.1673 9.06028 49.0613 9.06028H45.7761C45.7761 9.06028 45.6702 9.06028 45.6702 9.16629V25.0625C45.6702 25.0625 45.6702 25.1684 45.7761 25.1684H48.1075C48.1075 25.1684 48.2135 25.1684 48.2135 25.0625V12.8754C48.2135 12.7694 48.3195 12.7694 48.4255 12.8754L50.333 19.1279L50.439 19.5518C50.439 19.5518 50.439 19.6578 50.545 19.6578H52.3465C52.3465 19.6578 52.4525 19.6578 52.4525 19.5518L52.5585 19.1279L54.466 12.8754C54.466 12.7694 54.678 12.7694 54.678 12.8754V24.9565C54.678 24.9565 54.678 25.0625 54.784 25.0625H57.1154C57.1154 25.0625 57.2213 25.0625 57.2213 24.9565V9.06028C57.2213 9.06028 57.2213 8.95435 57.1154 8.95435H55.5257V9.06028Z" fill="white"/>
  <path d="M65.1872 22.625V17.7502C65.1872 17.7502 65.1872 17.6443 65.2931 17.6443H71.4394C71.4394 17.6443 71.5458 17.6443 71.5458 17.5383V15.5248C71.5458 15.5248 71.5458 15.4188 71.4394 15.4188H65.2931C65.2931 15.4188 65.1872 15.4188 65.1872 15.3128V11.0738C65.1872 11.0738 65.1872 10.9678 65.2931 10.9678H72.2873C72.2873 10.9678 72.3937 10.9678 72.3937 10.8619V9.06028C72.3937 9.06028 72.3937 8.95435 72.2873 8.95435H62.8558C62.8558 8.95435 62.7498 8.95435 62.7498 9.06028V24.7445C62.7498 24.7445 62.7498 24.8505 62.8558 24.8505H72.4995C72.4995 24.8505 72.6052 24.8505 72.6052 24.7445V22.625C72.6052 22.625 72.6052 22.5191 72.4995 22.5191L65.1872 22.625Z" fill="white"/>
  <path d="M89.0491 8.95435H78.2398C78.2398 8.95435 78.1334 8.95435 78.1334 9.06028V11.0738C78.1334 11.0738 78.1334 11.1798 78.2398 11.1798H82.4787V24.9565C82.4787 24.9565 82.4787 25.0625 82.5844 25.0625H84.916C84.916 25.0625 85.0217 25.0625 85.0217 24.9565V11.1798H89.2613C89.2613 11.1798 89.367 11.1798 89.367 11.0738L89.0491 8.95435Z" fill="white"/>
  <path d="M104.645 25.0625H106.765C106.87 25.0625 106.87 24.9565 106.87 24.9565L102.525 9.06028C102.525 9.06028 102.525 8.95435 102.419 8.95435H99.3464C99.3464 8.95435 99.24 8.95435 99.24 9.06028L94.8954 24.9565C94.8954 25.0625 94.8954 25.0625 95.0011 25.0625H97.1205C97.1205 25.0625 97.227 25.0625 97.227 24.9565L98.4985 20.2936C98.4985 20.2936 98.4985 20.1876 98.6042 20.1876H103.267C103.267 20.1876 103.373 20.1876 103.373 20.2936L104.645 25.0625C104.539 25.0625 104.539 25.0625 104.645 25.0625ZM99.1342 18.0681L100.83 11.9216C100.83 11.8157 100.936 11.8157 101.042 11.9216L102.737 18.0681C102.737 18.1741 102.737 18.1741 102.632 18.1741H99.24C99.1342 18.1741 99.1342 18.0681 99.1342 18.0681Z" fill="white"/>
  <path d="M120.135 9.06028C120.029 9.06028 120.029 9.06028 120.135 9.06028L118.121 15.3128C118.121 15.4188 118.016 15.4188 117.909 15.3128L116.002 9.06028C116.002 9.06028 116.002 8.95435 115.896 8.95435H112.505C112.505 8.95435 112.399 8.95435 112.399 9.06028V24.9565C112.399 24.9565 112.399 25.0625 112.505 25.0625H114.836C114.836 25.0625 114.942 25.0625 114.942 24.9565V12.8754C114.942 12.7694 115.048 12.7694 115.154 12.8754L117.062 19.1279L117.168 19.5518C117.168 19.5518 117.168 19.6578 117.273 19.6578H119.075C119.075 19.6578 119.181 19.6578 119.181 19.5518L119.287 19.1279L121.194 12.8754C121.194 12.7694 121.407 12.7694 121.407 12.8754V24.9565C121.407 24.9565 121.407 25.0625 121.512 25.0625H123.844C123.844 25.0625 123.95 25.0625 123.95 24.9565V9.06028C123.95 9.06028 123.95 8.95435 123.844 8.95435H120.135V9.06028Z" fill="white"/>
  <path d="M139.228 25.0625H141.347C141.454 25.0625 141.454 24.9565 141.454 24.9565L137.108 9.06028C137.108 9.06028 137.108 8.95435 137.003 8.95435H133.93C133.93 8.95435 133.823 8.95435 133.823 9.06028L129.479 24.9565C129.479 25.0625 129.479 25.0625 129.584 25.0625H131.704C131.704 25.0625 131.809 25.0625 131.809 24.9565L133.082 20.2936C133.082 20.2936 133.082 20.1876 133.187 20.1876H137.85C137.85 20.1876 137.956 20.1876 137.956 20.2936L139.228 25.0625ZM133.823 18.0681L135.519 11.9216C135.519 11.8157 135.625 11.8157 135.731 11.9216L137.426 18.0681C137.426 18.1741 137.426 18.1741 137.32 18.1741H133.93C133.823 18.1741 133.823 18.0681 133.823 18.0681Z" fill="white"/>
  <path d="M155.247 17.3263C154.294 16.6905 153.234 16.2666 152.28 15.7367C151.644 15.4188 151.009 15.1009 150.373 14.571C149.419 13.8292 149.631 12.2396 150.585 11.6037C151.962 10.65 154.294 11.1798 154.612 13.0873C154.612 13.0873 154.612 13.1933 154.718 13.1933H156.838C156.943 13.1933 156.943 13.1933 156.943 13.0873C156.838 11.8157 156.308 10.65 155.354 10.0141C154.506 9.37823 153.446 8.95435 152.387 8.95435C146.77 8.95435 146.24 14.8889 149.313 16.6905C149.631 16.9024 152.598 18.3861 153.658 19.0219C154.718 19.6578 155.036 20.8235 154.612 21.7772C154.188 22.625 153.128 23.2609 152.069 23.1549C150.903 23.049 149.949 22.4131 149.631 21.4593C149.525 21.2474 149.525 20.9295 149.525 20.8235C149.525 20.8235 149.525 20.7175 149.419 20.7175H147.088C147.088 20.7175 146.982 20.7175 146.982 20.8235C146.982 22.5191 147.406 23.3669 148.571 24.2147C149.631 25.0625 150.796 25.3804 151.962 25.3804C155.142 25.3804 156.731 23.5788 157.049 21.7772C157.367 19.9757 156.838 18.3861 155.247 17.3263Z" fill="white"/>
  <path d="M175.277 24.8505L167.328 16.6905V16.5845L174.535 9.16629C174.641 9.06028 174.535 9.06028 174.429 9.06028H171.461C171.461 9.06028 171.461 9.06028 171.356 9.06028L165.315 15.3128C165.209 15.4188 165.209 15.3128 165.209 15.2068V9.06028C165.209 9.06028 165.209 8.95435 165.103 8.95435H162.772C162.772 8.95435 162.666 8.95435 162.666 9.06028V24.9565C162.666 24.9565 162.666 25.0625 162.772 25.0625H165.103C165.103 25.0625 165.209 25.0625 165.209 24.9565V17.9621C165.209 17.8562 165.315 17.8562 165.315 17.8562L172.204 24.9565C172.204 24.9565 172.204 24.9565 172.309 24.9565H175.277C175.277 24.9565 175.382 24.8505 175.277 24.8505Z" fill="white"/>
</svg>