<svg xmlns="http://www.w3.org/2000/svg" width="40" height="48" viewBox="0 0 40 48" fill="none">
  <path d="M26.7347 5.47705H31.4222C31.8454 5.47705 32.2442 5.55843 32.6185 5.72119C32.9929 5.88395 33.3265 6.11182 33.6195 6.40479C33.9125 6.69775 34.1403 7.03141 34.3031 7.40576C34.4659 7.78011 34.5472 8.17887 34.5472 8.60205V16.4146H31.4222V8.60205H26.7347V13.2896H7.98474V8.60205H3.29724V41.4146H17.3597V44.5396H3.29724C2.87406 44.5396 2.4753 44.4582 2.10095 44.2954C1.7266 44.1326 1.39294 43.9048 1.09998 43.6118C0.807007 43.3188 0.579142 42.9852 0.416382 42.6108C0.253621 42.2365 0.172241 41.8377 0.172241 41.4146V8.60205C0.172241 8.17887 0.253621 7.78011 0.416382 7.40576C0.579142 7.03141 0.807007 6.69775 1.09998 6.40479C1.39294 6.11182 1.7266 5.88395 2.10095 5.72119C2.4753 5.55843 2.87406 5.47705 3.29724 5.47705H7.98474V3.91455C7.98474 3.49137 8.06612 3.09261 8.22888 2.71826C8.39164 2.34391 8.61951 2.01025 8.91248 1.71729C9.20544 1.42432 9.5391 1.19645 9.91345 1.03369C10.2878 0.87093 10.6866 0.789551 11.1097 0.789551H23.6097C24.0329 0.789551 24.4317 0.87093 24.806 1.03369C25.1804 1.19645 25.514 1.42432 25.807 1.71729C26.1 2.01025 26.3278 2.34391 26.4906 2.71826C26.6534 3.09261 26.7347 3.49137 26.7347 3.91455V5.47705ZM11.1097 10.1646H23.6097V3.91455H11.1097V10.1646ZM38.1117 24.4224C38.4698 25.106 38.7465 25.8302 38.9418 26.5952C39.1371 27.3602 39.2347 28.1333 39.2347 28.9146C39.2347 29.5656 39.1696 30.2166 39.0394 30.8677C38.9092 31.5187 38.6976 32.1372 38.4047 32.7231C38.1442 33.3416 37.8187 33.9113 37.4281 34.4321C37.0375 34.953 36.598 35.4412 36.1097 35.897V47.6646L29.8597 44.686L23.6097 47.6646V35.897C23.0238 35.3761 22.5111 34.7902 22.0717 34.1392C21.6322 33.4881 21.2823 32.7882 21.0219 32.0396C20.7614 31.3234 20.5987 30.5747 20.5336 29.7935C20.4685 29.0122 20.4847 28.231 20.5824 27.4497C20.7126 26.6685 20.9323 25.9198 21.2416 25.2036C21.5508 24.4875 21.9496 23.8202 22.4379 23.2017C22.8936 22.5832 23.4307 22.0298 24.0492 21.5415C24.6677 21.0532 25.335 20.6463 26.0511 20.3208C26.7673 19.9953 27.5079 19.7674 28.2728 19.6372C29.0378 19.507 29.8109 19.4744 30.5922 19.5396C31.3734 19.6047 32.1384 19.7674 32.8871 20.0278C33.6358 20.2882 34.3357 20.63 34.9867 21.0532C35.6377 21.4764 36.2237 21.9728 36.7445 22.5425C37.2653 23.1121 37.7211 23.7388 38.1117 24.4224ZM29.8597 41.2681L32.9847 42.7329V37.7524C31.9756 38.1105 30.934 38.2896 29.8597 38.2896C28.7855 38.2896 27.7439 38.1105 26.7347 37.7524V42.7329L29.8597 41.2681ZM26.3929 34.0903C26.9138 34.4484 27.4672 34.717 28.0531 34.896C28.639 35.075 29.2413 35.1646 29.8597 35.1646C30.6735 35.1646 31.4629 35.0018 32.2279 34.6763C32.9929 34.3507 33.6683 33.895 34.2543 33.3091C34.8402 32.7231 35.2959 32.0477 35.6215 31.2827C35.947 30.5177 36.1097 29.7284 36.1097 28.9146C36.1097 28.2961 36.0202 27.6938 35.8412 27.1079C35.6622 26.522 35.3936 25.9686 35.0355 25.4478C34.71 24.9269 34.3112 24.4712 33.8392 24.0806C33.3672 23.6899 32.8383 23.3807 32.2523 23.1528C31.6664 22.8924 31.0723 22.7378 30.4701 22.689C29.8679 22.6401 29.2575 22.6646 28.639 22.7622C28.0205 22.8924 27.4427 23.104 26.9056 23.397C26.3685 23.6899 25.8721 24.0643 25.4164 24.52C24.9932 24.9432 24.6351 25.4233 24.3422 25.9604C24.0492 26.4976 23.8376 27.0754 23.7074 27.6938C23.6097 28.3123 23.5853 28.9227 23.6342 29.5249C23.683 30.1271 23.8376 30.7212 24.098 31.3071C24.3259 31.8931 24.6351 32.422 25.0258 32.894C25.4164 33.366 25.8721 33.7648 26.3929 34.0903Z" fill="url(#paint0_linear_2_1558)"/>
  <defs>
    <linearGradient id="paint0_linear_2_1558" x1="0.172242" y1="0.78955" x2="50.1106" y2="26.7156" gradientUnits="userSpaceOnUse">
      <stop stop-color="#2600FC"/>
      <stop offset="1" stop-color="#FF00EA"/>
    </linearGradient>
  </defs>
</svg>