<svg xmlns="http://www.w3.org/2000/svg" width="171" height="44" viewBox="0 0 171 44" fill="none">
  <g clip-path="url(#clip0_2_1467)">
    <path d="M14.1008 15.0738C16.0779 14.9244 19.0034 14.3862 21.8472 12.5046C24.6953 14.389 27.6261 14.926 29.6072 15.0745C29.5155 18.6947 29.3358 21.2869 29.0487 23.1958C28.7092 25.4539 28.2464 26.5515 27.7719 27.2109C27.3083 27.8552 26.6919 28.291 25.4724 28.965C25.2796 29.0715 25.074 29.1828 24.8565 29.3007L24.8552 29.3013C24.0166 29.7556 22.9997 30.3063 21.8472 31.0519C20.6966 30.3074 19.6816 29.7572 18.8445 29.3034C18.6255 29.1848 18.4187 29.0727 18.2249 28.9654C17.0072 28.2918 16.3928 27.8563 15.9307 27.2127C15.4575 26.5535 14.9959 25.4557 14.6575 23.1968C14.3714 21.2875 14.1924 18.6946 14.1008 15.0738Z" fill="#009FE8"/>
    <path fill-rule="evenodd" clip-rule="evenodd" d="M14.485 0.370605H28.4966C36.4067 0.370605 42.819 6.78292 42.819 14.6929V28.7046C42.819 36.6146 36.4067 43.027 28.4966 43.027H14.485C6.57497 43.027 0.162659 36.6146 0.162659 28.7046V14.6929C0.162659 6.78292 6.57497 0.370605 14.485 0.370605ZM23.1904 8.28699C22.4127 7.63738 21.2815 7.63738 20.5037 8.28699C17.3031 10.9602 13.6516 10.9423 12.1637 10.935C12.092 10.9346 12.0254 10.9343 11.9641 10.9343C11.4028 10.9343 10.8649 11.1594 10.471 11.5593C10.0772 11.9592 9.86015 12.5003 9.86865 13.0616C9.94055 17.8278 10.1308 21.2709 10.5125 23.818C10.8936 26.3623 11.4926 28.2176 12.526 29.6571C13.5706 31.1123 14.9091 31.9212 16.1959 32.6331C16.4249 32.7597 16.6559 32.8852 16.8905 33.0126C18.0044 33.6175 19.1969 34.2651 20.6255 35.29C21.3557 35.8138 22.3385 35.8138 23.0686 35.29C24.4986 34.2642 25.6926 33.6163 26.8084 33.0108C27.0418 32.8843 27.2717 32.7594 27.4997 32.6335C28.7873 31.9219 30.1274 31.1135 31.1739 29.659C32.2096 28.2197 32.8107 26.3642 33.1934 23.8191C33.5765 21.2714 33.7676 17.828 33.8394 13.0616C33.8479 12.5003 33.6309 11.9592 33.237 11.5593C32.8431 11.1594 32.3053 10.9343 31.744 10.9343C31.682 10.9343 31.6147 10.9346 31.5424 10.935C30.0422 10.9422 26.3909 10.96 23.1904 8.28699Z" fill="#009FE8"/>
    <path d="M57.1276 17.5436H52.4969V14.8144H65.1069V17.5436H60.4762V29.2858H57.1276V17.5436ZM68.2794 19.6315C68.6651 19.0939 69.1821 18.6872 69.8295 18.4115C70.4911 18.1362 71.2488 17.9981 72.1032 17.9981V20.9753C71.7458 20.9476 71.5045 20.9338 71.3801 20.9338C70.4565 20.9338 69.7334 21.1956 69.2094 21.7194C68.6857 22.2293 68.4237 23.0011 68.4237 24.0347V29.2858H65.1989V18.1635H68.2794V19.6315ZM84.0667 18.1635V29.2858H81.0063V27.9625C80.5791 28.4447 80.0696 28.8169 79.4765 29.0789C78.8841 29.3269 78.2432 29.4511 77.554 29.4511C76.0933 29.4511 74.9361 29.0306 74.0817 28.19C73.2272 27.3494 72.8 26.1021 72.8 24.4481V18.1635H76.0242V23.9727C76.0242 25.7642 76.7756 26.6603 78.2778 26.6603C79.0493 26.6603 79.6701 26.4122 80.1388 25.9157C80.6068 25.4058 80.8411 24.655 80.8411 23.6625V18.1635H84.0667ZM89.5555 29.4511C88.6319 29.4511 87.7291 29.3407 86.8477 29.1204C85.965 28.8858 85.2626 28.5966 84.7386 28.2521L85.8136 25.9368C86.3099 26.2536 86.9092 26.5154 87.6123 26.7219C88.3153 26.915 89.0039 27.0115 89.6793 27.0115C91.0439 27.0115 91.7262 26.6742 91.7262 25.9984C91.7262 25.6816 91.5395 25.4541 91.1683 25.3165C90.7957 25.1788 90.224 25.0613 89.4518 24.9647C88.5428 24.8271 87.7913 24.6684 87.1989 24.4897C86.6058 24.3105 86.0894 23.9932 85.6483 23.5387C85.2211 23.0837 85.0075 22.4362 85.0075 21.5952C85.0075 20.8926 85.2073 20.2723 85.6069 19.7347C86.0202 19.1833 86.6127 18.756 87.3849 18.4531C88.1702 18.1501 89.0937 17.9981 90.1549 17.9981C90.9408 17.9981 91.7192 18.0879 92.4907 18.2672C93.2767 18.4325 93.9245 18.6667 94.4346 18.9697L93.359 21.2645C92.3808 20.7134 91.3128 20.4377 90.1549 20.4377C89.4656 20.4377 88.9492 20.5343 88.6043 20.7268C88.26 20.9199 88.0879 21.168 88.0879 21.4714C88.0879 21.8159 88.2739 22.0568 88.6458 22.1949C89.0177 22.3325 89.6108 22.4635 90.4238 22.5877C91.3335 22.7392 92.0773 22.9045 92.6559 23.0838C93.2352 23.2491 93.7378 23.5593 94.165 24.0142C94.5923 24.4687 94.8059 25.1029 94.8059 25.9157C94.8059 26.6048 94.5998 27.2184 94.1865 27.7556C93.7724 28.2932 93.1661 28.7137 92.367 29.0167C91.5817 29.3063 90.6443 29.4511 89.5555 29.4511ZM102.729 28.7482C102.412 28.9823 102.019 29.1616 101.551 29.2858C101.096 29.3957 100.613 29.4511 100.104 29.4511C98.7808 29.4511 97.7542 29.1133 97.0235 28.438C96.3066 27.7627 95.9486 26.7702 95.9486 25.4612V20.8926H94.2328V18.4115H95.9486V15.7037H99.1734V18.4115H101.943V20.8926H99.1734V25.4197C99.1734 25.8885 99.2909 26.2536 99.5246 26.5155C99.7728 26.7635 100.118 26.8878 100.559 26.8878C101.068 26.8878 101.502 26.7496 101.861 26.4739L102.729 28.7482ZM130.013 14.8144L125.279 29.2858H121.682L118.498 19.4867L115.211 29.2858H111.635L106.88 14.8144H110.353L113.619 24.9857L117.03 14.8144H120.131L123.438 25.0684L126.808 14.8144H130.013ZM134.073 17.9981C135.795 17.9981 137.118 18.4115 138.042 19.2387C138.965 20.0516 139.427 21.285 139.427 22.939V29.2858H136.408V27.9004C135.803 28.9341 134.673 29.4511 133.018 29.4511C132.164 29.4511 131.42 29.3063 130.785 29.0167C130.165 28.7276 129.69 28.3277 129.359 27.8178C129.028 27.3078 128.863 26.7291 128.863 26.0811C128.863 25.0479 129.249 24.2345 130.021 23.642C130.806 23.0494 132.012 22.7531 133.638 22.7531H136.202C136.202 22.0501 135.988 21.5125 135.561 21.1407C135.134 20.7546 134.493 20.5615 133.638 20.5615C133.046 20.5615 132.46 20.658 131.881 20.8511C131.316 21.0303 130.834 21.2783 130.434 21.5952L129.276 19.3419C129.883 18.9147 130.606 18.584 131.447 18.3498C132.301 18.1152 133.177 17.9981 134.073 17.9981ZM133.824 27.2801C134.376 27.2801 134.865 27.1563 135.293 26.9083C135.72 26.6464 136.023 26.2675 136.202 25.7714V24.634H133.99C132.667 24.634 132.006 25.0684 132.006 25.9368C132.006 26.3501 132.164 26.6808 132.48 26.9288C132.812 27.163 133.26 27.2801 133.824 27.2801ZM141.106 13.9465H144.33V29.2858H141.106V13.9465ZM146.083 13.9465H149.308V29.2858H146.083V13.9465ZM161.955 23.7658C161.955 23.8073 161.935 24.0969 161.893 24.634H153.479C153.631 25.3232 153.989 25.8675 154.554 26.2675C155.12 26.667 155.822 26.8667 156.663 26.8667C157.242 26.8667 157.752 26.7841 158.193 26.6187C158.647 26.4395 159.068 26.1642 159.453 25.7919L161.17 27.6524C160.122 28.8514 158.593 29.4511 156.58 29.4511C155.326 29.4511 154.217 29.2098 153.252 28.7276C152.287 28.2311 151.543 27.5491 151.02 26.6808C150.496 25.8125 150.234 24.8271 150.234 23.7246C150.234 22.636 150.489 21.6573 150.999 20.789C151.523 19.9073 152.232 19.2248 153.128 18.7426C154.038 18.2462 155.05 17.9981 156.167 17.9981C157.256 17.9981 158.241 18.2327 159.123 18.7011C160.005 19.1699 160.694 19.8451 161.19 20.7268C161.7 21.5952 161.955 22.6083 161.955 23.7658ZM156.188 20.4377C155.457 20.4377 154.844 20.6442 154.348 21.058C153.851 21.4714 153.548 22.0362 153.438 22.7531H158.916C158.806 22.0501 158.503 21.4919 158.006 21.0786C157.511 20.6513 156.904 20.4377 156.188 20.4377ZM170.035 28.7482C169.718 28.9823 169.326 29.1616 168.857 29.2858C168.402 29.3957 167.92 29.4511 167.41 29.4511C166.087 29.4511 165.06 29.1133 164.33 28.438C163.613 27.7627 163.255 26.7702 163.255 25.4612V20.8926H161.539V18.4115H163.255V15.7037H166.48V18.4115H169.25V20.8926H166.48V25.4197C166.48 25.8885 166.596 26.2536 166.831 26.5155C167.079 26.7635 167.423 26.8878 167.865 26.8878C168.374 26.8878 168.808 26.7496 169.167 26.4739L170.035 28.7482Z" fill="white"/>
  </g>
  <defs>
    <clipPath id="clip0_2_1467">
      <rect width="170.057" height="42.86" fill="white" transform="translate(0.162659 0.370605)"/>
    </clipPath>
  </defs>
</svg>