<svg width="63" height="63" viewBox="0 0 63 63" fill="none" xmlns="http://www.w3.org/2000/svg"><rect x="14.273" y=".58" width="50" height="50" rx="25" transform="rotate(16 14.273 .58)" fill="url(#a)"/><path d="M31.245 33.725c-1.583-.461-2.835-1.242-3.756-2.344-.915-1.1-1.469-2.473-1.662-4.117-.187-1.643.018-3.496.616-5.56.59-2.057 1.398-3.724 2.422-5 1.03-1.274 2.222-2.126 3.575-2.556 1.361-.434 2.832-.425 4.41.028 1.58.453 2.829 1.223 3.747 2.311.924 1.09 1.486 2.448 1.684 4.074.2 1.62.003 3.459-.593 5.515-.594 2.07-1.409 3.752-2.444 5.045-1.03 1.294-2.224 2.165-3.583 2.613-1.358.448-2.83.445-4.416-.01Zm.95-3.309c1.08.31 2.1.014 3.057-.889.957-.902 1.744-2.442 2.362-4.619.41-1.432.605-2.666.583-3.703-.016-1.035-.222-1.869-.62-2.502a2.802 2.802 0 0 0-1.664-1.255c-1.076-.308-2.09-.017-3.043.873-.954.89-1.741 2.407-2.362 4.55-.416 1.45-.619 2.701-.608 3.755.018 1.05.225 1.893.62 2.532a2.837 2.837 0 0 0 1.674 1.258Zm-4.507 17.279.19-.664c.145-.504.384-.936.718-1.297a2.63 2.63 0 0 1 1.233-.75c.487-.14 1.028-.125 1.622.046.602.172 1.072.445 1.409.816.34.373.554.802.641 1.288a3.18 3.18 0 0 1-.08 1.486l-.19.664a3.198 3.198 0 0 1-.72 1.303 2.59 2.59 0 0 1-1.23.744c-.488.14-1.03.124-1.623-.046-.603-.173-1.071-.447-1.407-.822a2.6 2.6 0 0 1-.643-1.282 3.199 3.199 0 0 1 .08-1.486Zm1.979-.151-.19.663a1.772 1.772 0 0 0-.028.883c.07.3.29.503.663.61.373.106.663.052.871-.163.212-.214.361-.47.447-.77l.19-.663c.086-.3.1-.596.043-.892-.057-.296-.278-.499-.663-.61-.369-.105-.662-.05-.879.168a1.76 1.76 0 0 0-.454.774Zm-6.372-8.902.19-.664c.146-.508.388-.942.726-1.302.34-.363.75-.613 1.233-.75.486-.135 1.023-.119 1.608.05.607.173 1.078.446 1.415.817.337.371.55.8.641 1.288.092.483.066.978-.08 1.486l-.19.664a3.125 3.125 0 0 1-.726 1.301c-.334.361-.744.61-1.23.744-.482.133-1.022.113-1.62-.058-.598-.172-1.067-.444-1.408-.816a2.655 2.655 0 0 1-.643-1.282 3.21 3.21 0 0 1 .084-1.478Zm1.99-.148-.19.664a1.765 1.765 0 0 0-.028.89c.07.294.286.493.646.597.377.108.67.054.877-.16.213-.215.361-.471.447-.77l.19-.664c.086-.3.1-.596.043-.892-.056-.296-.28-.5-.669-.61-.364-.105-.654-.047-.868.176a1.813 1.813 0 0 0-.447.77Zm-3.92 9.94 12.26-10.102 1.61.461-12.26 10.104-1.61-.462Z" fill="#fff"/><defs><linearGradient id="a" x1="14.273" y1="50.58" x2="42.355" y2="-9.641" gradientUnits="userSpaceOnUse"><stop stop-color="#2600FC"/><stop offset="1" stop-color="#FF00EA"/></linearGradient></defs></svg>